<svg width="416" height="286" viewBox="0 0 416 286" fill="none" xmlns="http://www.w3.org/2000/svg">
<g clip-path="url(#clip0_435_35883)">
<path d="M226.204 263.378H397.954C400.711 263.378 403.023 261.067 403.023 258.312V17.0667C403.023 14.3111 400.711 12 397.954 12H226.204C223.447 12 221.135 14.3111 221.135 17.0667V258.312C221.135 261.067 223.358 263.378 226.204 263.378ZM397.954 12.1778C400.622 12.1778 402.846 14.3111 402.846 17.0667V258.312C402.846 260.978 400.711 263.201 397.954 263.201H226.204C223.536 263.201 221.312 261.067 221.312 258.312V17.0667C221.312 14.4 223.447 12.1778 226.204 12.1778H397.954Z" fill="#ECEEF4"/>
<path d="M33.8215 263.378H205.571C208.328 263.378 210.641 261.067 210.641 258.312V17.0667C210.641 14.3111 208.328 12 205.571 12H33.8215C31.0643 12 28.7517 14.3111 28.7517 17.0667V258.312C28.7517 261.067 30.9753 263.378 33.8215 263.378ZM205.571 12.1778C208.239 12.1778 210.463 14.3111 210.463 17.0667V258.312C210.463 260.978 208.328 263.201 205.571 263.201H33.8215C31.1532 263.201 28.9296 261.067 28.9296 258.312V17.0667C28.9296 14.4 31.0643 12.1778 33.8215 12.1778H205.571Z" fill="#ECEEF4"/>
<path d="M93.5858 207.216C80.4216 194.059 80.4216 172.729 93.5858 159.573C106.75 146.416 128.094 146.416 141.258 159.573C154.422 172.729 154.422 194.059 141.258 207.216C128.094 220.372 106.75 220.372 93.5858 207.216Z" fill="#F0F0F0"/>
<path d="M374.118 124H281.795C281.795 124 283.129 116.711 300.206 117.067C296.826 106.4 306.343 94.7556 327.956 94.3111C349.57 93.8667 341.92 111.2 341.92 111.2C341.92 111.2 378.209 104.978 367.18 117.867C385.147 118.578 388.705 120.889 374.118 124Z" fill="#F0F0F0"/>
<path d="M134.419 169.69C132.284 159.201 150.251 147.645 183.338 147.29C216.425 146.934 199.792 164.001 199.792 164.001C199.792 164.001 256.894 157.867 236.437 170.579C263.654 171.201 268.457 173.423 245.242 176.534H104.356C104.356 176.534 108.537 169.245 134.419 169.69Z" fill="#FAFAFA"/>
<path d="M152.735 91.0223H57.0324C57.0324 91.0223 35.6861 78.7556 60.946 77.1556C56.5877 66.6667 67.2609 48.8889 104.617 48.5333C141.973 48.0889 122.584 72.6223 122.584 72.6223C122.584 72.6223 179.507 56.2667 159.584 82.3112C168.389 82.3112 199.431 91.0223 152.735 91.0223Z" fill="#F5F5F5"/>
<path d="M353.123 217.867H310.163C310.163 217.867 300.557 212.356 311.942 211.645C309.985 206.934 314.788 198.934 331.599 198.756C348.409 198.578 339.692 209.601 339.692 209.601C339.692 209.601 365.308 202.223 356.325 213.956C360.149 213.956 374.113 217.867 353.123 217.867Z" fill="#F5F5F5"/>
<path d="M355.079 50.1331C355.079 50.1331 367.175 42.3998 375.625 53.422C368.687 46.5776 355.524 53.5109 355.524 53.5109C355.524 53.5109 340.492 46.6664 335.423 53.5998C340.759 42.4887 355.079 50.1331 355.079 50.1331Z" fill="#F0F0F0"/>
<path d="M289.981 152.445C289.981 152.445 297.274 147.734 302.344 154.4C298.163 150.312 290.247 154.4 290.247 154.4C290.247 154.4 281.175 150.312 278.151 154.4C281.442 147.823 289.981 152.445 289.981 152.445Z" fill="#F0F0F0"/>
<path d="M157.008 44.089C157.008 44.089 160.655 41.7779 163.234 45.0668C161.189 43.0223 157.186 45.0668 157.186 45.0668C157.186 45.0668 152.65 43.0223 151.138 45.0668C152.739 41.7779 157.008 44.089 157.008 44.089Z" fill="#F5F5F5"/>
<path d="M67.7974 123.911C67.7974 123.911 71.4441 121.6 74.0234 124.889C71.9777 122.844 67.9753 124.889 67.9753 124.889C67.9753 124.889 63.4392 122.844 61.9272 124.889C63.5281 121.6 67.7974 123.911 67.7974 123.911Z" fill="#F5F5F5"/>
<path d="M218.5 293.31C124.905 293.31 49.0315 288.891 49.0315 283.44C49.0315 277.989 124.905 273.57 218.5 273.57C312.095 273.57 387.969 277.989 387.969 283.44C387.969 288.891 312.095 293.31 218.5 293.31Z" fill="#F5F5F5"/>
<path d="M264.162 217.418C260.695 197.346 276.906 187.361 292.708 192.353C303.413 195.716 314.118 193.168 321.357 189.704C322.682 189.093 323.906 190.723 322.988 191.844C321.765 193.372 320.338 194.799 319.114 196.021C318.095 197.04 319.114 198.772 320.439 198.365C326.761 196.429 335.936 194.697 344.908 196.735C346.132 197.04 346.335 198.671 345.316 199.282C336.446 204.58 322.784 218.437 310.04 222.921C308.511 223.43 309.021 225.672 310.55 225.57C312.589 225.468 314.628 225.162 316.565 224.857C318.095 224.551 318.808 226.589 317.585 227.404C299.743 238.51 268.647 243.095 264.162 217.418Z" fill="#D66565"/>
<path opacity="0.7" d="M264.162 217.418C260.695 197.346 276.906 187.361 292.708 192.353C303.413 195.716 314.118 193.168 321.357 189.704C322.682 189.093 323.906 190.723 322.988 191.844C321.765 193.372 320.338 194.799 319.114 196.021C318.095 197.04 319.114 198.772 320.439 198.365C326.761 196.429 335.936 194.697 344.908 196.735C346.132 197.04 346.335 198.671 345.316 199.282C336.446 204.58 322.784 218.437 310.04 222.921C308.511 223.43 309.021 225.672 310.55 225.57C312.589 225.468 314.628 225.162 316.565 224.857C318.095 224.551 318.808 226.589 317.585 227.404C299.743 238.51 268.647 243.095 264.162 217.418Z" fill="white"/>
<path d="M286.182 188.074L293.013 240.649C293.217 241.872 292.197 242.891 290.974 242.789L257.839 240.446C256.922 240.344 256.208 239.63 256.004 238.713L250.906 199.18C250.805 198.263 251.314 197.346 252.232 197.142L283.633 186.443C284.755 186.138 285.978 186.851 286.182 188.074Z" fill="black"/>
<path d="M292.71 197.958L296.788 229.442C296.89 230.563 296.075 231.581 294.851 231.581L256.823 232.295C255.803 232.295 254.988 231.581 254.886 230.563L251.827 207.331C251.725 206.313 252.337 205.396 253.254 205.192L290.263 196.225C291.487 196.022 292.608 196.837 292.71 197.958Z" fill="#263238"/>
<path d="M126.762 203.669L146.68 200.391L146.514 199.385L126.596 202.664L126.762 203.669Z" fill="#D66565"/>
<path d="M151.931 199.443L157.766 198.482L157.6 197.477L151.765 198.437L151.931 199.443Z" fill="#D66565"/>
<path d="M68.0038 243.095C68.0038 243.095 95.429 268.771 134.681 263.677L258.35 251.959C267.933 251.042 274.866 242.382 273.541 232.906L269.36 200.504C268.137 191.029 259.267 184.406 249.786 185.934L127.238 206.108C87.8845 211.305 68.0038 243.095 68.0038 243.095Z" fill="#D66565"/>
<path opacity="0.3" d="M68.0055 243.095C68.4133 242.484 75.8559 230.97 90.2312 220.883C94.7171 217.724 101.038 220.475 101.752 225.977L105.014 251.246C105.728 256.748 100.325 261.028 95.1249 259.092C78.2008 252.673 68.0055 243.095 68.0055 243.095Z" fill="white"/>
<path d="M133.493 230.952C132.973 242.589 141.991 252.444 153.635 252.963C165.279 253.483 175.14 244.471 175.66 232.834C176.18 221.198 167.162 211.343 155.518 210.823C143.875 210.303 134.014 219.315 133.493 230.952Z" fill="white"/>
<path opacity="0.3" d="M140.392 230.766C140.901 224.245 145.999 218.641 152.728 217.826C152.932 217.826 153.136 217.724 153.339 217.724C154.257 217.622 155.175 217.622 156.092 217.724C156.398 217.724 156.704 217.826 157.01 217.826C157.214 217.826 157.418 217.928 157.723 217.928C163.331 219.253 167.919 223.94 168.632 229.951C168.734 230.664 168.734 231.276 168.734 231.989C168.632 238.917 163.433 244.929 156.296 245.846C148.548 246.865 141.411 241.363 140.392 233.517C140.29 232.702 140.29 231.683 140.392 230.766Z" fill="#D66565"/>
<path opacity="0.3" d="M140.392 230.766C140.901 224.245 145.999 218.641 152.728 217.826C152.932 217.826 153.136 217.724 153.339 217.724C154.257 217.622 155.175 217.622 156.092 217.724C156.398 217.724 156.704 217.826 157.01 217.826C157.214 217.826 157.418 217.928 157.723 217.928C163.331 219.253 167.919 223.94 168.632 229.951C168.734 230.664 168.734 231.276 168.734 231.989C168.225 238.102 163.229 243.299 156.398 244.114C148.65 245.031 141.411 239.835 140.392 232.6C140.392 231.989 140.392 231.378 140.392 230.766Z" fill="#D66565"/>
<path d="M187.666 194.643L183.13 194.975L180.718 184.796L185.254 184.465L187.666 194.643Z" fill="#FDC6B8"/>
<path d="M213.969 192.882L209.505 193.201L206.696 182.868L211.244 182.609L213.969 192.882Z" fill="#FDC6B8"/>
<path d="M209.039 192.242L214.093 191.896C214.309 191.859 214.406 191.991 214.515 192.194L215.566 196.163C215.712 196.582 215.341 197.016 214.969 197.006C213.204 197.085 212.316 197.089 210.119 197.243C208.727 197.333 206.902 197.496 205.006 197.673C203.169 197.765 202.789 195.978 203.556 195.698C207.009 194.663 207.293 193.726 208.369 192.653C208.548 192.4 208.751 192.291 209.039 192.242Z" fill="#263238"/>
<path d="M182.826 194.063L187.735 193.742C187.951 193.705 188.048 193.837 188.157 194.04L189.208 198.009C189.354 198.429 189.056 198.85 188.612 198.852C186.847 198.932 184.266 199.003 181.997 199.169C179.356 199.324 179.381 199.468 176.308 199.697C174.471 199.789 173.862 197.967 174.642 197.76C178.095 196.725 178.743 196.614 181.723 194.548C182.046 194.271 182.454 194.053 182.826 194.063Z" fill="#263238"/>
<path d="M175.613 48.2187C174.474 48.4877 173.275 48.8409 172.064 49.1222C170.852 49.4034 169.629 49.6127 168.477 49.8097C167.325 50.0067 166.161 50.1318 165.057 50.1725C163.952 50.2133 162.908 50.1698 162.354 49.9682L163.996 51.7614C164.033 51.9772 163.961 51.9895 164.008 51.8333C163.983 51.6894 164.09 51.4489 164.185 51.1364C164.386 50.5835 164.707 49.862 165.04 49.2125C165.851 47.8888 166.793 46.4685 167.747 45.1202C168.773 43.7596 169.799 42.399 170.91 41.098C172.008 39.7251 173.119 38.4241 174.301 37.1108L172.105 34.6719C170.657 35.7343 169.306 36.9283 167.883 38.1346C166.532 39.3286 165.193 40.5946 163.938 41.9202C162.684 43.2458 161.441 44.6434 160.308 46.2445C159.784 47.0749 159.187 47.9176 158.7 48.9638C158.498 49.5168 158.225 50.082 158.132 50.8385C158.027 51.5231 157.972 52.4955 158.229 53.5625L158.595 54.8331L159.882 55.4276C161.723 56.2238 163.309 56.397 164.87 56.4262C166.359 56.4678 167.823 56.3655 169.275 56.1912C170.655 56.0292 172.022 55.7953 173.378 55.4894C174.733 55.1835 176.016 54.8899 177.419 54.4278L175.613 48.2187Z" fill="#EEA18C"/>
<path d="M170.865 36.5138L172.961 32.7483L175.791 37.1526C175.791 37.1526 173.897 40.3652 171.059 39.3693L170.865 36.5138Z" fill="#FDC6B8"/>
<path d="M176.193 30.4179L177.55 35.7406L175.72 37.1646L172.962 32.7481L176.193 30.4179Z" fill="#FDC6B8"/>
<path d="M179.548 30.5112L175.233 29.5457C174.921 29.4511 174.586 29.6566 174.563 29.9567L173.391 38.6748C173.368 38.9749 173.574 39.3101 173.874 39.3328L178.189 40.2983C178.501 40.3929 178.836 40.1874 178.859 39.8873L180.044 31.2412C180.066 30.941 179.861 30.6059 179.548 30.5112Z" fill="#263238"/>
<path d="M181.36 55.3814C179.013 59.4124 166.496 58.1462 166.496 58.1462L166.11 49.8421C166.11 49.8421 168.973 48.3894 174.995 47.2112C181.089 46.0206 183.861 50.9537 181.36 55.3814Z" fill="#6268E8"/>
<path opacity="0.2" d="M180.716 184.796L181.977 189.987L186.526 189.728L185.325 184.452L180.716 184.796Z" fill="black"/>
<path opacity="0.2" d="M211.247 182.608L206.698 182.868L208.127 188.179L212.676 187.919L211.247 182.608Z" fill="black"/>
<path d="M171.002 50.2623C170.051 55.091 168.04 69.2854 173.043 89.3901L197.132 87.714C197.163 84.0054 193.842 64.2054 196.653 46.4671C196.653 46.4671 192.484 45.9211 188.571 45.998C185.474 46.0834 180.984 46.2588 178.321 46.7143C176.377 47.0467 174.531 47.5108 173.188 47.8886C172.061 48.2295 171.176 49.1214 171.002 50.2623Z" fill="#6268E8"/>
<path opacity="0.2" d="M180.698 52.3816C180.998 52.4043 181.358 52.3428 181.659 52.3655C182.944 60.2927 183.17 62.4759 191.566 68.6682C193.349 69.9926 194.735 71.1628 195.821 72.3102C195.909 73.2579 195.926 74.2179 196.002 75.0936C193.834 73.6869 191.017 71.9469 188.874 70.684C179.4 65.1204 180.47 52.3466 180.698 52.3816Z" fill="black"/>
<path opacity="0.2" d="M191.601 51.1093C191.362 54.0385 192.522 60.8019 195.63 68.565C195.398 62.4576 195.437 55.341 196.365 48.2205C194.792 48.1193 191.876 48.3959 191.601 51.1093Z" fill="black"/>
<path d="M186.715 36.4673C186.251 39.8057 186.065 43.9111 188.488 45.9409C188.488 45.9409 187.303 49.4026 181.218 49.7769C175.649 50.137 178.31 46.645 178.31 46.645C181.967 45.501 181.561 40.9781 180.757 38.4493L186.715 36.4673Z" fill="#FDC6B8"/>
<path d="M180.894 49.6092L179.677 51.1507C179.617 51.235 179.57 51.3912 179.594 51.5351L180.104 52.7811C180.129 52.925 180.298 53.0443 180.442 53.0197L181.846 53.0016C181.99 52.977 182.134 52.9524 182.182 52.7961L182.92 51.4848C183.039 51.3162 183.002 51.1004 182.846 51.053L181.338 49.6073C181.301 49.3914 181.014 49.4407 180.894 49.6092Z" fill="#263238"/>
<path d="M181.314 49.4631C182.404 51.4988 184.455 53.5182 184.455 53.5182C184.455 53.5182 189.829 49.8585 189.535 45.9831C189.51 45.8392 189.414 45.7076 189.329 45.6479C189.089 45.5409 188.595 45.255 188.186 45.0288C187.945 44.9218 187.657 44.971 187.55 45.2115C187.266 46.1489 186.026 47.9906 181.314 49.4631Z" fill="white"/>
<path d="M181.095 49.5013C179.399 51.2728 178.665 53.4722 178.665 53.4722C178.665 53.4722 176.3 50.9141 177.05 47.0825C177.098 46.9263 177.157 46.842 177.289 46.7455C177.492 46.6366 177.972 46.4065 178.463 46.2483C178.739 46.1271 179.004 46.378 179.041 46.5939C179.033 47.41 179.376 48.9807 181.095 49.5013Z" fill="white"/>
<path d="M180.761 52.2969C180.533 52.2619 180.046 63.6772 189.254 68.99C193.034 71.1579 199.128 75.152 199.115 75.0801C198.278 73.2235 196.261 70.5319 191.696 67.2393C183.505 61.382 183.171 59.4393 181.65 52.2931C181.362 52.3423 181.062 52.3196 180.761 52.2969Z" fill="#263238"/>
<path opacity="0.2" d="M180.773 38.5213C181.248 39.9955 181.546 42.1665 180.966 43.9693C181.542 43.8708 182.021 43.6407 182.56 43.3263C184.596 42.2374 185.573 40.5889 186.499 38.2085C186.544 37.6082 186.589 37.0079 186.719 36.4673L180.773 38.5213Z" fill="black"/>
<path d="M181.302 27.3234C179.278 20.7074 175.533 28.6804 177.481 31.8284C178.702 33.7673 181.802 28.9414 181.302 27.3234Z" fill="#263238"/>
<path d="M189.253 32.2568C188.228 36.6538 187.868 39.3077 185.308 41.227C181.371 44.1964 176.292 41.3619 176.018 36.7425C175.747 32.5671 177.446 26.0549 182.003 24.9791C186.489 23.9156 190.205 27.8721 189.253 32.2568Z" fill="#FDC6B8"/>
<path d="M188.003 36.6179C186.166 36.7098 185.341 34.9251 185.341 34.9251C185.94 34.5265 187.46 33.4518 188.029 32.0211C188.029 32.0211 185.786 29.7385 185.658 28.1308C183.283 28.5371 177.43 27.2422 178.221 24.5144C179.013 21.7866 183.77 19.7137 186.958 21.0202C190.146 22.3266 192.102 22.0661 193.469 21.8322C192.704 22.5556 191.53 23.0527 191.53 23.0527C191.53 23.0527 194.504 24.8401 195.026 28.7505C195.437 32.0131 197.387 33.0129 197.387 33.0129C197.387 33.0129 195.289 33.742 194.469 32.8454C194.942 33.8756 193.771 37.8532 189.971 39.0218C185.654 40.2046 188.003 36.6179 188.003 36.6179Z" fill="#263238"/>
<path d="M190.14 38.2522C188.607 39.255 187.421 39.6802 186.483 39.3962C185.448 38.9806 185.537 37.3359 186.384 36.228C187.172 35.2045 188.98 34.0805 190.22 34.8312C191.448 35.5101 191.659 37.1774 190.14 38.2522Z" fill="#FDC6B8"/>
<path d="M173.021 89.3165C173.021 89.3165 168.551 124.594 170.002 137.381C171.591 151.403 179.923 187.897 179.923 187.897L188.047 187.322C188.047 187.322 183.538 151.951 183.234 138.079C182.936 122.948 188.334 88.3263 188.334 88.3263L173.021 89.3165Z" fill="#263238"/>
<path opacity="0.2" d="M182.722 103.952L185.204 111.081C184.5 117.349 183.787 123.988 183.429 129.678C180.415 116.418 182.722 103.952 182.722 103.952Z" fill="black"/>
<path d="M188.344 185.195L188.562 188.195L179.475 188.786L178.607 185.453L188.344 185.195Z" fill="#6268E8"/>
<path d="M181.521 88.7503C181.521 88.7503 183.342 119.248 186.714 132.002C190.439 145.955 205.895 186.858 205.895 186.858L214.163 186.258C214.163 186.258 202.707 146.226 200.326 132.339C197.748 117.302 197.107 87.639 197.107 87.639L181.521 88.7503Z" fill="#263238"/>
<path d="M214.011 183.617L214.636 186.399L205.562 187.062L204.083 184.056L214.011 183.617Z" fill="#6268E8"/>
<path d="M182.343 32.5506C182.261 32.935 182.082 33.1878 181.781 33.1651C181.553 33.1301 181.419 32.7826 181.442 32.4825C181.524 32.0981 181.703 31.8453 182.004 31.868C182.304 31.8907 182.425 32.1662 182.343 32.5506Z" fill="#263238"/>
<path d="M178.317 31.9804C178.235 32.3648 178.056 32.6176 177.756 32.5949C177.528 32.5599 177.394 32.2124 177.417 31.9123C177.439 31.6121 177.678 31.2751 177.978 31.2978C178.194 31.2608 178.4 31.596 178.317 31.9804Z" fill="#263238"/>
<path d="M179.57 32.3591C179.57 32.3591 178.427 34.3323 177.314 35.1892C177.882 35.9069 178.974 35.7942 178.974 35.7942L179.57 32.3591Z" fill="#BA4D3C"/>
<path d="M180.068 37.0132C179.996 37.0255 179.984 36.9535 179.971 36.8815C179.959 36.8096 180.031 36.7973 180.103 36.7849C181.629 37.0425 182.573 36.066 182.645 36.0537C182.717 36.0414 182.789 36.0291 182.789 36.0291C182.801 36.101 182.814 36.173 182.814 36.173C182.754 36.2573 181.75 37.318 180.068 37.0132Z" fill="#263238"/>
<path d="M183.78 31.4164C183.708 31.4288 183.624 31.3691 183.612 31.2972C183.176 30.4829 182.419 30.3902 182.419 30.3902C182.347 30.4025 182.25 30.2709 182.225 30.127C182.201 29.983 182.332 29.8865 182.489 29.9338C182.561 29.9215 183.546 30.0492 184.091 31.0671C184.116 31.211 184.128 31.2829 183.996 31.3795C183.852 31.4041 183.852 31.4041 183.78 31.4164Z" fill="#263238"/>
<path d="M176.76 30.2473C176.76 30.2473 176.688 30.2596 176.676 30.1877C176.592 30.128 176.567 29.9841 176.627 29.8998C177.355 28.9604 178.328 29.0162 178.4 29.0039C178.544 28.9793 178.568 29.1232 178.593 29.2671C178.618 29.4111 178.486 29.5077 178.33 29.4603C178.33 29.4603 177.513 29.4519 176.964 30.1384C176.904 30.2227 176.832 30.235 176.76 30.2473Z" fill="#263238"/>
<path d="M200.708 53.2528L195.082 56.7334C195.082 56.7334 202.577 70.6343 201.843 72.8336C200.872 75.8141 197.726 80.7961 195.916 84.0682C196.111 84.7754 197.212 86.4388 197.861 86.772C202.289 83.6446 208.744 75.06 208.635 72.2643C208.413 65.7847 200.708 53.2528 200.708 53.2528Z" fill="#FDC6B8"/>
<path d="M196.653 46.4666C201.891 47.2 204.427 58.0984 204.427 58.0984L197.463 63.2891C197.463 63.2891 193.523 60.1858 191.314 55.0827C188.997 49.776 192.016 45.7785 196.653 46.4666Z" fill="#6268E8"/>
<path d="M207.57 193.161C207.21 193.223 206.898 193.128 206.729 193.009C206.56 192.89 206.451 192.686 206.486 192.458C206.462 192.314 206.593 192.217 206.653 192.133C207.12 191.831 208.66 192.604 208.829 192.724C208.829 192.724 208.913 192.783 208.854 192.868C208.866 192.94 208.794 192.952 208.794 192.952C208.434 193.014 208.002 193.087 207.57 193.161ZM206.894 192.24C206.822 192.252 206.822 192.252 206.75 192.265C206.75 192.265 206.678 192.277 206.702 192.421C206.727 192.565 206.752 192.709 206.836 192.768C207.089 192.947 207.677 192.921 208.457 192.713C207.903 192.512 207.253 192.178 206.894 192.24Z" fill="#6268E8"/>
<path d="M208.706 192.893C208.153 192.691 207.248 191.735 207.306 191.207C207.293 191.135 207.413 190.966 207.628 190.929C207.772 190.905 207.929 190.952 208.085 190.999C208.603 191.429 208.813 192.652 208.825 192.724C208.838 192.796 208.85 192.868 208.706 192.893C208.778 192.88 208.778 192.88 208.706 192.893ZM207.737 191.133C207.522 191.17 207.534 191.242 207.534 191.242C207.511 191.542 208.079 192.259 208.572 192.545C208.511 192.186 208.303 191.406 207.966 191.168C207.894 191.18 207.809 191.12 207.737 191.133Z" fill="#6268E8"/>
<path d="M180.978 194.972C180.534 194.974 180.089 194.976 179.908 194.785C179.74 194.666 179.715 194.522 179.678 194.306C179.653 194.162 179.713 194.078 179.845 193.981C180.384 193.667 182.224 194.463 182.453 194.498C182.525 194.486 182.537 194.558 182.549 194.63C182.562 194.702 182.49 194.714 182.49 194.714C181.986 194.8 181.494 194.958 180.978 194.972ZM180.085 194.088C180.013 194.1 179.941 194.113 179.869 194.125C179.797 194.137 179.81 194.209 179.81 194.209C179.834 194.353 179.859 194.497 179.943 194.557C180.209 194.808 180.941 194.757 181.936 194.512C181.383 194.311 180.53 194.086 180.085 194.088Z" fill="#6268E8"/>
<path d="M182.343 194.739C181.718 194.549 180.597 193.63 180.655 193.102C180.63 192.958 180.75 192.789 181.037 192.74C181.253 192.703 181.482 192.738 181.65 192.857C182.241 193.275 182.45 194.498 182.463 194.57C182.475 194.642 182.475 194.642 182.343 194.739C182.415 194.726 182.415 194.726 182.343 194.739ZM181.146 192.944C180.859 192.993 180.871 193.065 180.871 193.065C180.848 193.365 181.572 194.13 182.21 194.391C182.148 194.031 181.953 193.324 181.531 193.026C181.447 192.966 181.29 192.919 181.146 192.944Z" fill="#6268E8"/>
<path d="M196.896 83.3081L192.674 84.1785L196.018 88.1248C196.018 88.1248 199.652 87.281 199.578 84.2567L196.896 83.3081Z" fill="#FDC6B8"/>
<path d="M190.976 85.95L194.162 89.4048L196.089 88.1123L192.673 84.1785L190.976 85.95Z" fill="#FDC6B8"/>
</g>
<defs>
<clipPath id="clip0_435_35883">
<rect width="416" height="287" fill="white" transform="matrix(-1 0 0 1 416 -1)"/>
</clipPath>
</defs>
</svg>
